<svg aria-hidden="true" style="position: absolute; width: 0; height: 0; overflow: hidden;" version="1.1"
    xmlns="http://www.w3.org/2000/svg" xmlns:xlink="http://www.w3.org/1999/xlink">
    <defs>
        <symbol id="icon-search" viewBox="0 0 31 32">
            <path
                d="M30.222 29.359l-7.086-7.087h-0.076c2.184-2.575 3.288-5.896 3.080-9.266s-1.71-6.53-4.194-8.818c-2.484-2.288-5.756-3.527-9.132-3.458s-6.595 1.441-8.982 3.829c-2.388 2.388-3.76 5.607-3.829 8.983s1.17 6.648 3.458 9.132 5.447 3.986 8.818 4.194c3.37 0.208 6.69-0.896 9.266-3.080 0 0 0 0.055 0 0.076l7.086 7.087c0.101 0.102 0.222 0.183 0.355 0.239s0.275 0.084 0.419 0.084 0.286-0.029 0.419-0.084c0.133-0.055 0.254-0.137 0.355-0.239 0.112-0.099 0.202-0.22 0.265-0.355s0.098-0.282 0.102-0.431-0.023-0.298-0.078-0.436c-0.056-0.138-0.139-0.264-0.245-0.369zM13.095 24.681c-2.156 0-4.264-0.639-6.057-1.837s-3.19-2.901-4.015-4.893c-0.825-1.992-1.041-4.184-0.62-6.299s1.459-4.057 2.984-5.582c1.525-1.525 3.467-2.563 5.582-2.984s4.307-0.205 6.299 0.62c1.992 0.825 3.695 2.223 4.893 4.015s1.837 3.901 1.837 6.057c0 1.432-0.282 2.849-0.83 4.172s-1.351 2.525-2.363 3.537-2.214 1.815-3.537 2.363c-1.323 0.548-2.74 0.83-4.172 0.83z">
            </path>
        </symbol>
        <symbol id="icon-pencil" viewBox="0 0 32 32">
            <path stroke-linejoin="round" stroke-linecap="round" stroke-miterlimit="4" stroke-width="2.1333"
                d="M16.368 8.514l-14.235 14.235v7.117h7.118l14.235-14.235M16.368 8.514l5.108-5.107c0.703-0.703 1.055-1.055 1.46-1.186 0.357-0.116 0.742-0.116 1.1 0 0.405 0.132 0.757 0.483 1.459 1.185l3.096 3.096c0.705 0.705 1.057 1.057 1.189 1.463 0.116 0.357 0.116 0.742 0 1.1-0.132 0.406-0.484 0.758-1.188 1.462l-5.106 5.106M16.368 8.514l7.118 7.117">
            </path>
        </symbol>
        <symbol id="icon-plus" viewBox="0 0 32 32">
            <path
                d="M14.080 29.301c0 0.509 0.202 0.997 0.562 1.357s0.848 0.562 1.358 0.562 0.998-0.202 1.358-0.562c0.36-0.36 0.562-0.848 0.562-1.357v-11.511h11.52c0.509 0 0.998-0.202 1.358-0.562s0.562-0.848 0.562-1.357c0-0.509-0.202-0.997-0.562-1.357s-0.849-0.562-1.358-0.562h-11.52v-11.511c0-0.509-0.202-0.997-0.562-1.357s-0.849-0.562-1.358-0.562c-0.509 0-0.998 0.202-1.358 0.562s-0.562 0.848-0.562 1.357v11.511h-11.52c-0.509 0-0.998 0.202-1.358 0.562s-0.562 0.848-0.562 1.357c0 0.509 0.202 0.997 0.562 1.357s0.848 0.562 1.358 0.562h11.52v11.511z">
            </path>
        </symbol>
        <symbol id="icon-moon" viewBox="0 0 32 32">
            <path
                d="M16.182 0.798c0.311 0.536 0.285 1.204-0.067 1.714-1.067 1.548-1.692 3.423-1.692 5.449 0 5.31 4.305 9.616 9.615 9.616 2.026 0 3.901-0.625 5.449-1.692 0.51-0.352 1.178-0.377 1.714-0.066s0.845 0.903 0.793 1.521c-0.694 8.213-7.577 14.661-15.968 14.661-8.851 0-16.026-7.175-16.026-16.026 0-8.391 6.448-15.275 14.661-15.968 0.618-0.052 1.21 0.256 1.521 0.793zM11.898 3.832c-5.055 1.718-8.693 6.506-8.693 12.142 0 7.081 5.74 12.821 12.821 12.821 5.636 0 10.424-3.638 12.142-8.693-1.296 0.441-2.686 0.68-4.129 0.68-7.081 0-12.821-5.74-12.821-12.821 0-1.444 0.239-2.833 0.68-4.129z">
            </path>
        </symbol>


    </defs>
</svg>